# xmcd
#
# Track frame offsets:
#	150
#	10289
#	20944
#	31974
#	44499
#	56637
#	70881
#	83066
#	104119
#	117168
#	133091
#	146918
#	163627
#	176569
#	194886
#	218520
#	246942
#	263180
#	275881
#	298719
#	315572
#	340318
#
# Disc length: 4717 seconds
#
# Revision: 1
# Processed by: cddbd v1.5.1PL2 Copyright (c) Steve Scherf et al.
# Submitted via: audiograbber 1.83.01
#
DISCID=65126b16
DTITLE=The Pazant Brothers - The Brothers Funk
DYEAR=2005
DGENRE=Funk
TTITLE0=Skunk Juice
TTITLE1=Toe Jam
TTITLE2=Groovin'
TTITLE3=Fever
TTITLE4=Work Song
TTITLE5=Juicy Lucy
TTITLE6=Chicken Scratch
TTITLE7=Fly Vines
TTITLE8=A Gritty Nitty
TTITLE9=New Orleans
TTITLE10=Chick A Boom
TTITLE11=Greasy Greens
TTITLE12=A Gritty Nitty (75)
TTITLE13=Back To Beaufort
TTITLE14=Loose And Juicy
TTITLE15=Clabber Biscuits
TTITLE16=Toe Jam
TTITLE17=Work Song (75)
TTITLE18=Spooky
TTITLE19=Skunk Juice (75)
TTITLE20=You've Got To Do Your Best
TTITLE21=New Orleans (75)
EXTD=
EXTT0=
EXTT1=
EXTT2=
EXTT3=
EXTT4=
EXTT5=
EXTT6=
EXTT7=
EXTT8=
EXTT9=
EXTT10=
EXTT11=
EXTT12=
EXTT13=
EXTT14=
EXTT15=
EXTT16=
EXTT17=
EXTT18=
EXTT19=
EXTT20=
EXTT21=
PLAYORDER=
